<?xml version="1.0" encoding="UTF-8" standalone="no"?>
<svg
   xmlns:dc="http://purl.org/dc/elements/1.1/"
   xmlns:cc="http://creativecommons.org/ns#"
   xmlns:rdf="http://www.w3.org/1999/02/22-rdf-syntax-ns#"
   xmlns:svg="http://www.w3.org/2000/svg"
   xmlns="http://www.w3.org/2000/svg"
   xmlns:sodipodi="http://sodipodi.sourceforge.net/DTD/sodipodi-0.dtd"
   xmlns:inkscape="http://www.inkscape.org/namespaces/inkscape"
   width="1194.772"
   height="449.17392"
   viewBox="0 0 955.81641 359.34005"
   id="svg2"
   version="1.1"
   inkscape:version="0.48.2 r9819"
   sodipodi:docname="01.svg">
  <metadata
     id="metadata9">
    <rdf:RDF>
      <cc:Work
         rdf:about="">
        <dc:format>image/svg+xml</dc:format>
        <dc:type
           rdf:resource="http://purl.org/dc/dcmitype/StillImage" />
        <dc:title></dc:title>
      </cc:Work>
    </rdf:RDF>
  </metadata>
  <defs
     id="defs7" />
  <sodipodi:namedview
     pagecolor="#ffffff"
     bordercolor="#666666"
     borderopacity="1"
     objecttolerance="10"
     gridtolerance="10"
     guidetolerance="10"
     inkscape:pageopacity="0"
     inkscape:pageshadow="2"
     inkscape:window-width="1594"
     inkscape:window-height="860"
     id="namedview5"
     showgrid="false"
     fit-margin-top="10"
     fit-margin-left="10"
     fit-margin-bottom="10"
     fit-margin-right="10"
     inkscape:zoom="1.0323746"
     inkscape:cx="596.33451"
     inkscape:cy="237.46027"
     inkscape:window-x="224"
     inkscape:window-y="23"
     inkscape:window-maximized="0"
     inkscape:current-layer="svg2" />
  <path
     style="fill:#000000;fill-opacity:1;stroke:none"
     d="m 713.67235,322.48951 c 0,0 -0.12,-16.75 -0.12,-16.75 0,0 4.75,0.13 4.75,0.13 0,0 -0.13,-31.5 -0.13,-31.5 0,0 -1.12,-2.13 -1.12,-2.13 0,0 -0.25,-3.37 -0.25,-3.37 0,0 5.25,-0.13 5.25,-0.13 0,0 2.21,-5.22 2.21,-5.22 0,0 1.44,-0.03 1.44,-0.03 0,0 0.17,-3.04 0.17,-3.04 0,0 -0.01,-3 -0.01,-3 -0.32,0.67 0,0.81 -0.85,1.7 0.18,-0.61 0.25,-1.33 0.26,-1.52 0.03,-0.64 0.26,-0.32 0.66,-2.28 0,0 0.04,5.1 0.04,5.1 0,0 0.2,3.04 0.2,3.04 0,0 1.38,0 1.38,0 0,0 2.25,5.13 2.25,5.13 0,0 5.25,0 5.25,0 0,0 0,3.25 0,3.25 0,0 -0.75,2.25 -0.75,2.25 0,0 0.5,34 0.5,34 0,0 33.75,-0.38 33.75,-0.38 0,0 0.12,14.75 0.12,14.75"
     id="path3774"
     inkscape:connector-curvature="0" />
  <path
     style="fill:#000000;fill-opacity:1;stroke:none"
     d="m 28.317611,323.59002 c 0,0 0,-89.5 0,-89.5 0,0 25.5,0 25.5,0 0,0 0.5,-31.5 0.5,-31.5 0,0 9,0 9,0 0,0 0,31.5 0,31.5 0,0 9.5,0 9.5,0 0,0 0,36 0,36 0,0 16.5,0.5 16.5,0.5 0,0 0.5,51.5 0.5,51.5"
     id="path3772"
     inkscape:connector-curvature="0" />
  <path
     style="fill:#000000;fill-opacity:1;stroke:none"
     d="m 308.31761,320.59002 c 0,0 0,-89.5 0,-89.5 0,0 18.23,0 18.23,0 0,0 0,-16 0,-16 0,0 51.18,0 51.18,0 0,0 0,15.73 0,15.73 0,0 10,0 10,0 0,0 0,90.36 0,90.36"
     id="path3770"
     inkscape:connector-curvature="0" />
  <path
     style="fill:#000000;fill-opacity:1;stroke:none"
     d="m 298.17761,321.09002 c 0,0 0,-66.73 0,-66.73 0,0 -11.27,0 -11.27,0 0,0 0,-54 0,-54 0,0 -3.64,-0.18 -3.64,-0.18 0,0 0,-3.09 0,-3.09 0,0 -14.72,0 -14.72,0.18 0,0.18 -0.18,2.55 -0.18,2.55 0,0 -16.73,0.18 -16.73,0.18 0,0 -0.37,120.73 -0.37,120.73"
     id="path3768"
     inkscape:connector-curvature="0" />
  <path
     style="fill:#000000;fill-opacity:1;stroke:none"
     d="m 783.04561,319.92019 c 0,0 0,-17 0,-17 0,0 -0.88,-0.5 -0.88,-0.5 0,0 0,-0.38 0,-0.38 0,0 0.88,0 0.88,0 0,0 -0.25,-1.37 -0.25,-1.37 0,0 0.37,0 0.37,0 0,0 0,-4.25 0,-4.25 0,0 -0.37,-0.57 -0.37,-0.57 0,0 0.62,-0.06 0.62,-0.06 0,0 0.06,-7.75 0.06,-7.75 0,0 -0.5,-0.31 -0.5,-0.31 0,0 -0.06,-2.75 -0.06,-2.75 0,0 1.06,-0.06 1.06,-0.06 0,0 0,-2.32 0,-2.32 0.07,-1.93 1.32,-6.62 5.25,-8.06 0,0 0.44,-2.44 0.44,-2.44 0,0 -1.87,-1.81 0.31,-1.81 2.19,0 0.44,1.81 0.44,1.81 0,0 0.38,2.44 0.38,2.44 4,1.28 5.15,5.5 5.18,7.88 0,0 0,2.56 0,2.56 0,0 0.88,0.06 0.88,0.06 0,0 -0.06,2.69 -0.06,2.69 0,0 -0.57,0.37 -0.57,0.37 0,0 -0.03,7.78 0,7.78 0.03,0 0.66,0.1 0.66,0.1 0,0 -0.5,0.5 -0.5,0.5 0,0 0.03,2.9 0.03,2.9 0,0 6.38,0 6.38,0 0,0 -0.04,-2.68 -0.04,-2.68 0,0 -0.59,-0.53 -0.59,-0.53 0,0 0.84,-0.22 0.84,-0.22 0,0 0,-2.57 0,-2.57 0,0 -0.59,-0.46 -0.59,-0.5 0,-0.03 1.28,-1.5 1.28,-1.5 0,0 0.1,-7.03 0.1,-7.03 0,0 -0.63,-0.97 -0.63,-0.97 0,0 0,-0.81 0,-0.81 0,0 0.69,-0.56 0.69,-0.56 0,0 0.03,-0.47 0.03,-0.47 0,0 -1.5,-1.12 -1.5,-1.12 0,0 0,-0.69 0,-0.69 0,0 1.56,0.03 1.56,0.03 0,0 -0.03,-2.44 -0.03,-2.44 0,0 -0.53,-0.28 -0.53,-0.28 0,0 -0.03,-0.56 -0.03,-0.56 0,0 0.65,0 0.65,0 0,0 0.57,-0.97 0.57,-0.97 0,0 0.03,-0.78 0.03,-0.78 0,0 -0.47,-0.6 -0.47,-0.6 0,0 0.56,-0.03 0.56,-0.03 0,0 0.13,-1.03 0.13,-1.03 0,0 -0.19,-0.62 -0.19,-0.62 0,0 0.28,-0.82 0.28,-0.82 0,0 0.09,-1 0.09,-1 0,0 0.29,-0.65 0.29,-0.65 0,0 0.43,-0.85 0.43,-0.85 0,0 -0.12,-0.78 -0.12,-0.78 0,0 0.19,-0.68 0.19,-0.68 0,0 0.4,-0.19 0.4,-0.19 0,0 0.19,0.37 0.19,0.37 0,-5.4 8.17,-13.31 12.53,-13.4 -0.34,-0.25 -0.22,-0.69 0.28,-0.78 0,0 0.06,-5.66 0.06,-5.66 0.63,-0.06 2.25,-2.06 2.1,-6.91 0,0 0.59,-0.4 0.59,-0.4 0,0 0.03,-0.85 0.03,-0.85 -0.58,-0.17 -0.57,-0.94 0,-1.09 0,0 -0.02,-0.74 -0.02,-0.74 0,0 -0.01,-2.32 -0.01,-2.32 0,0 -1.34,0 -1.34,0 0,0 -0.03,-0.47 -0.03,-0.47 0,0 1.36,0 1.36,0 0,0 -0.01,-1.43 -0.01,-1.43 0,0 0.45,0 0.45,0 0,0 0,1.43 0,1.43 0,0 1.38,0 1.38,0 0,0 -0.03,0.47 -0.03,0.47 0,0 -1.34,0 -1.34,0 0,0 -0.01,2.33 -0.01,2.33 0,0 -0.02,0.73 -0.02,0.73 0.57,0.11 0.61,0.92 0,1.09 0,0 0.03,0.85 0.03,0.85 0,0 0.59,0.4 0.59,0.4 -0.15,4.85 1.47,6.85 2.1,6.91 0,0 0.06,5.66 0.06,5.66 0.5,0.09 0.62,0.53 0.28,0.78 4.36,0.09 12.53,8 12.53,13.4 0,0 0.19,-0.37 0.19,-0.37 0,0 0.41,0.19 0.41,0.19 0,0 0.18,0.68 0.18,0.68 0,0 -0.12,0.78 -0.12,0.78 0,0 0.44,0.85 0.44,0.85 0,0 0.28,0.65 0.28,0.65 0,0 0.09,1 0.09,1 0,0 0.28,0.82 0.28,0.82 0,0 -0.19,0.62 -0.19,0.62 0,0 0.13,1.03 0.13,1.03 0,0 0.56,0.03 0.56,0.03 0,0 -0.47,0.6 -0.47,0.6 0,0 0.03,0.78 0.03,0.78 0,0 0.57,0.97 0.57,0.97 0,0 0.65,0 0.65,0 0,0 -0.03,0.56 -0.03,0.56 0,0 -0.53,0.28 -0.53,0.28 0,0 -0.03,2.44 -0.03,2.44 0,0 1.56,-0.03 1.56,-0.03 0,0 0,0.69 0,0.69 0,0 -1.5,1.12 -1.5,1.12 0,0 0.03,0.47 0.03,0.47 0,0 0.69,0.56 0.69,0.56 0,0 0,0.81 0,0.81 0,0 -0.62,0.97 -0.62,0.97 0,0 0.09,7.03 0.09,7.03 0,0 1.28,1.47 1.28,1.5 0,0.04 -0.59,0.5 -0.59,0.5 0,0 0,2.57 0,2.57 0,0 0.84,0.22 0.84,0.22 0,0 -0.59,0.53 -0.59,0.53 0,0 -0.03,2.68 -0.03,2.68 0,0 6.37,0 6.37,0 0,0 0.03,-2.9 0.03,-2.9 0,0 -0.5,-0.5 -0.5,-0.5 0,0 0.63,-0.1 0.66,-0.1 0.03,0 0,-7.78 0,-7.78 0,0 -0.56,-0.37 -0.56,-0.37 0,0 -0.07,-2.69 -0.07,-2.69 0,0 0.88,-0.06 0.88,-0.06 0,0 0,-2.56 0,-2.56 0.03,-2.38 1.19,-6.6 5.19,-7.88 0,0 0.37,-2.44 0.37,-2.44 0,0 -1.75,-1.81 0.44,-1.81 2.19,0 0.31,1.81 0.31,1.81 0,0 0.44,2.44 0.44,2.44 3.94,1.44 5.19,6.13 5.25,8.06 0,0 0,2.32 0,2.32 0,0 1.06,0.06 1.06,0.06 0,0 -0.06,2.75 -0.06,2.75 0,0 -0.5,0.31 -0.5,0.31 0,0 0.06,7.75 0.06,7.75 0,0 0.63,0.06 0.63,0.06 0,0 -0.38,0.57 -0.38,0.57 0,0 0,4.25 0,4.25 0,0 0.38,0 0.38,0 0,0 -0.25,1.37 -0.25,1.37 0,0 0.87,0 0.87,0 0,0 0,0.38 0,0.38 0,0 -0.87,0.5 -0.87,0.5 0,0 0,17 0,17"
     id="path3766"
     inkscape:connector-curvature="0" />
  <path
     style="fill:#000000;fill-opacity:1;stroke:none"
     d="m 245.31761,320.84002 c 0,0 -0.12,-32.37 -0.12,-32.37 0,0 -15.94,0.06 -15.94,0.06 0,0 0,-28.13 0,-28.13 0,0 -11.56,0.44 -11.56,0.44 0,0 -0.07,-2.75 -0.07,-2.75 0,0 -7.62,0.31 -7.62,0.31 0,0 -0.81,1.25 -0.81,1.25 0,0 0.06,1.5 0.06,1.5 0,0 -6.25,0.44 -6.25,0.44 0,0 -7.81,16.63 -7.81,16.63 0,0 0,3.37 0,3.37 -4.82,-2.06 -20.74,-2.44 -25.25,0.13 0,0 0,-2 0,-2 0,0 -9.32,-14.32 -9.32,-14.32 0,0 -4.62,0.38 -4.62,0.38 0,0 0,-2.38 0,-2.38 0,0 -6.88,0.13 -6.88,0.13 0,0 0,2.81 0,2.81 0,0 -6.81,0.63 -6.81,0.63 0,0 -0.12,22.43 -0.12,22.43 0,0 -9.88,0.38 -9.88,0.38 0,0 0,-27.69 0,-27.69 0,0 -3,-2.25 -3,-2.25 0,0 -7.5,0.63 -7.5,0.63 0,0 0.13,29.5 0.13,29.5 0,0 -27.379999,0.62 -27.379999,0.62 0,0 0.25,31.5 0.25,31.5"
     id="path3764"
     inkscape:connector-curvature="0" />
  <path
     style="fill:#000000;fill-opacity:1;stroke:none"
     d="m 529.44761,318.59002 c 0,0 -0.13,-16.75 -0.13,-16.75 0,0 0.84,-0.69 0.84,-0.69 0,0 0,-1.43 0,-1.43 0,0 -0.84,-0.57 -0.84,-0.57 0,0 0,-1.03 0,-1.03 0,0 1.1,-0.01 1.1,-0.01 0,0 1.71,-1.74 1.71,-1.74 0,0 -0.03,-0.56 -0.03,-0.56 0,0 -1.17,-0.01 -1.17,-0.01 0,0 -0.01,-1.29 -0.01,-1.29 0,0 0.63,-0.66 0.63,-0.66 0,0 0,-0.58 0,-0.58 0,0 -1.02,-0.25 -0.93,-1.11 0.4,-2.34 0.93,-1.69 0.08,-2.69 -0.77,0.49 -1.1,1.42 -0.97,2.24 0,0 -0.6,1.38 -0.6,1.38 0,0 -1.18,0.5 -1.18,0.5 0,0 0.05,-2.46 0.05,-2.46 0,0 0.95,-1 0.95,-1 0,0 -0.97,0.03 -0.97,0.03 0,0 0,-0.58 0,-0.58 0,0 -0.94,-0.85 -0.94,-0.85 0,0 0.02,-4.6 0.02,-4.6 0,0 0.74,-0.02 0.74,-0.02 0,0 1.13,-1.24 1.13,-1.24 0,0 -1.8,0.02 -1.8,0.02 0,0 0,-0.53 0,-0.53 0,0 -0.49,-0.43 -0.49,-0.43 0,0 0.02,-0.82 0.02,-0.82 0,0 -1.17,0 -1.17,0 -0.11,-0.62 -0.74,-0.64 -0.83,0 0,0 -2.08,-0.02 -2.08,-0.02 -0.07,-0.62 -0.69,-0.64 -0.83,0 0,0 -1.04,-0.02 -1.04,-0.02 0,0 0.02,-6.6 0.02,-6.6 1.05,-0.31 0.87,0.75 2.36,0.98 -0.88,-0.75 -0.26,-1.03 -0.97,-2.1 -1.9,-1.8 -1.12,-4.17 -1.83,-3.97 0,0 -0.25,11.67 -0.25,11.67 0,0 -1,0.02 -1,0.02 -0.24,-0.76 -0.69,-0.51 -0.75,-0.02 0,0 -2,0 -2,0 -0.23,-0.52 -0.6,-0.56 -0.8,0.02 0,0 -1.25,0 -1.25,0 0,0 0,0.89 0,0.89 0,0 -0.49,0.37 -0.49,0.37 0,0 0,0.58 0,0.58 0,0 -1.82,0 -1.8,0 0.05,0 1.09,1.29 1.09,1.29 0,0 0.65,0.02 0.65,0.02 0,0 0,4.45 0,4.45 0,0 -1.03,0.89 -1.03,0.89 0,0 0,0.6 0,0.6 0,0 -1,0 -1,0 0,0 1,1 1,1 0,0 -0.02,2.33 -0.02,2.33 0,0 -5.84,-0.04 -5.84,-0.04 -0.47,-0.18 -0.51,-2.14 -0.29,-2.34 -0.09,-0.53 -0.85,-0.53 -0.91,0.02 0.24,0.18 0.18,2.09 -0.29,2.32 0,0 -4.89,0.02 -4.89,0.02 -0.44,-0.18 -0.47,-2.16 -0.2,-2.31 -0.09,-0.51 -0.78,-0.6 -0.98,-0.03 0.27,0.2 0.18,2.14 -0.24,2.34 0,0 -5.02,0 -5.02,0 -0.47,-0.2 -0.56,-2.07 -0.25,-2.36 -0.15,-0.53 -0.78,-0.53 -0.98,0 0.27,0.2 0.2,2 -0.26,2.36 0,0 -5.03,0 -5.03,0 -0.46,-0.22 -0.6,-2.14 -0.31,-2.34 -0.11,-0.46 -0.82,-0.48 -0.91,0 0.22,0.4 0,2.16 -0.35,2.34 0,0 -4.63,0 -4.63,0 0,0 -0.01,-3.6 -0.01,-3.6 0,0 0.7,0 0.7,0 0,0 0.71,-0.8 0.71,-0.8 0,0 -1.22,-0.02 -1.22,-0.02 0,0 -0.4,-0.4 -0.4,-0.4 0,0 0,-0.96 0,-0.96 0,0 -0.8,-0.18 -0.8,-0.18 0,0 -0.02,-0.89 -0.02,-0.89 0,0 0.44,0 0.44,0 0,0 0.52,-0.49 0.52,-0.49 0,0 -0.8,0 -0.8,0 0,0 -0.03,-0.71 -0.03,-0.71 0,0 -0.33,-0.55 -0.33,-0.55 0,0 0.29,-0.62 0.29,-0.62 0,0 -0.69,-0.03 -0.69,-0.03 0,0 0.42,-3.33 0.42,-3.33 0,0 0.71,-1.07 0.71,-1.07 0,0 -1.02,-0.02 -1.02,-0.02 0,0 0,-0.47 0,-0.47 0,0 -0.58,-0.31 -0.58,-0.31 0,0 0.25,-1.44 0.25,-1.44 0,0 -0.65,-0.2 -0.65,-0.2 0,0 -0.22,-0.65 -0.22,-0.65 0,0 -0.35,0 -0.35,0 0,0 -0.23,0.65 -0.23,0.65 0,0 -0.75,0.2 -0.75,0.2 0,0 0.31,1.49 0.31,1.49 0,0 -0.58,0.24 -0.58,0.24 0,0 -0.02,0.47 -0.02,0.47 0,0 -0.96,0 -0.96,0 0,0 0.71,1.11 0.71,1.11 0,0 0.34,3.31 0.34,3.31 0,0 -0.74,0.02 -0.74,0.02 0,0 0.25,0.63 0.25,0.63 0,0 -0.36,0.48 -0.36,0.48 0,0 -0.02,0.76 -0.02,0.76 -1.4,-6.01 -4.95,-11.98 -13.79,-12 -8.83,-0.02 -12.43,5.99 -13.83,12 0,0 -0.02,-0.76 -0.02,-0.76 0,0 -0.36,-0.48 -0.36,-0.48 0,0 0.25,-0.63 0.25,-0.63 0,0 -0.74,-0.02 -0.74,-0.02 0,0 0.34,-3.31 0.34,-3.31 0,0 0.71,-1.11 0.71,-1.11 0,0 -0.96,0 -0.96,0 0,0 -0.02,-0.47 -0.02,-0.47 0,0 -0.58,-0.24 -0.58,-0.24 0,0 0.31,-1.49 0.31,-1.49 0,0 -0.75,-0.2 -0.75,-0.2 0,0 -0.23,-0.65 -0.23,-0.65 0,0 -0.35,0 -0.35,0 0,0 -0.22,0.65 -0.22,0.65 0,0 -0.65,0.2 -0.65,0.2 0,0 0.25,1.44 0.25,1.44 0,0 -0.58,0.31 -0.58,0.31 0,0 0,0.47 0,0.47 0,0 -1.02,0.02 -1.02,0.02 0,0 0.71,1.07 0.71,1.07 0,0 0.42,3.33 0.42,3.33 0,0 -0.69,0.03 -0.69,0.03 0,0 0.29,0.62 0.29,0.62 0,0 -0.33,0.55 -0.33,0.55 0,0 -0.03,0.71 -0.03,0.71 0,0 -0.8,0 -0.8,0 0,0 0.52,0.49 0.52,0.49 0,0 0.44,0 0.44,0 0,0 -0.02,0.89 -0.02,0.89 0,0 -0.8,0.18 -0.8,0.18 0,0 0,0.96 0,0.96 0,0 -0.4,0.4 -0.4,0.4 0,0 -1.22,0.02 -1.22,0.02 0,0 0.71,0.8 0.71,0.8 0,0 0.7,0 0.7,0 0,0 -0.01,3.6 -0.01,3.6 0,0 -4.63,0 -4.63,0 -0.35,-0.18 -0.57,-1.94 -0.35,-2.34 -0.09,-0.48 -0.8,-0.46 -0.91,0 0.29,0.2 0.15,2.12 -0.31,2.34 0,0 -5.03,0 -5.03,0 -0.46,-0.36 -0.53,-2.16 -0.26,-2.36 -0.2,-0.53 -0.83,-0.53 -0.98,0 0.31,0.29 0.22,2.16 -0.25,2.36 0,0 -5.02,0 -5.02,0 -0.42,-0.2 -0.51,-2.14 -0.24,-2.34 -0.2,-0.57 -0.89,-0.48 -0.98,0.03 0.27,0.15 0.24,2.13 -0.2,2.31 0,0 -4.89,-0.02 -4.89,-0.02 -0.47,-0.23 -0.53,-2.14 -0.29,-2.32 -0.06,-0.55 -0.82,-0.55 -0.91,-0.02 0.22,0.2 0.18,2.16 -0.29,2.34 0,0 -5.84,0.04 -5.84,0.04 0,0 -0.02,-2.33 -0.02,-2.33 0,0 1,-1 1,-1 0,0 -1,0 -1,0 0,0 0,-0.6 0,-0.6 0,0 -1.03,-0.89 -1.03,-0.89 0,0 0,-4.45 0,-4.45 0,0 0.65,-0.02 0.65,-0.02 0,0 1.04,-1.29 1.09,-1.29 0.02,0 -1.8,0 -1.8,0 0,0 0,-0.58 0,-0.58 0,0 -0.49,-0.37 -0.49,-0.37 0,0 0,-0.89 0,-0.89 0,0 -1.25,0 -1.25,0 -0.2,-0.58 -0.57,-0.54 -0.8,-0.02 0,0 -2,0 -2,0 -0.06,-0.49 -0.51,-0.74 -0.75,0.02 0,0 -1,-0.02 -1,-0.02 0,0 -0.11,-7 -0.11,-7 0.37,-0.18 2.71,2.04 3.15,2.08 -0.11,-1.08 -0.86,-2.33 -0.66,-3.04 -1.71,-1.01 -2.45,-4 -3.09,-3.71 0,0 0.04,11.69 0.04,11.69 0,0 -1.04,0.02 -1.04,0.02 -0.14,-0.64 -0.76,-0.62 -0.83,0 0,0 -2.08,0.02 -2.08,0.02 -0.09,-0.64 -0.72,-0.62 -0.83,0 0,0 -1.17,0 -1.17,0 0,0 0.02,0.82 0.02,0.82 0,0 -0.49,0.43 -0.49,0.43 0,0 0,0.53 0,0.53 0,0 -1.8,-0.02 -1.8,-0.02 0,0 1.13,1.24 1.13,1.24 0,0 0.74,0.02 0.74,0.02 0,0 0.02,4.6 0.02,4.6 0,0 -0.94,0.85 -0.94,0.85 0,0 0,0.58 0,0.58 0,0 -0.97,-0.03 -0.97,-0.03 0,0 0.95,1 0.95,1 0,0 0.06,2.46 0.06,2.46 0,0 -1.19,-0.5 -1.19,-0.5 0,0 -0.6,-1.38 -0.6,-1.38 0.13,-0.82 -0.2,-1.75 -0.96,-2.24 -0.86,1 -0.33,0.35 0.07,2.69 0.09,0.86 -0.93,1.11 -0.93,1.11 0,0 0,0.58 0,0.58 0,0 0.63,0.66 0.63,0.66 0,0 -0.01,1.29 -0.01,1.29 0,0 -1.17,0.01 -1.17,0.01 0,0 -0.03,0.56 -0.03,0.56 0,0 1.71,1.74 1.71,1.74 0,0 1.1,0.01 1.1,0.01 0,0 0,1.03 0,1.03 0,0 -0.84,0.57 -0.84,0.57 0,0 0,1.43 0,1.43 0,0 0.84,0.69 0.84,0.69 0,0 0.13,17.5 0.13,17.5"
     id="path3762"
     inkscape:connector-curvature="0" />
  <path
     style="fill:#000000;fill-opacity:1;stroke:none"
     d="m 877.16561,313.79019 c 0,0 0.25,-95.75 0.25,-95.75 0,0 5.5,-0.25 5.5,-0.25 0,0 -0.06,-1.75 -0.06,-1.75 0,0 -2.5,0.13 -2.5,0.13 0,0 0,-7.57 0,-7.57 0,0 9.25,-0.43 9.25,-0.43 0,0 0.31,-17.44 0.31,-17.44 0,0 1.75,0 1.81,0 0.07,0 0.5,17.44 0.5,17.44 0,0 17.82,0 17.82,0 0,0 0.18,-17.5 0.18,-17.5 0,0 1.88,0 1.88,0 0,0 0.37,17.5 0.37,17.5 0,0 10,0.06 10,0.06 0,0 -0.06,7.69 -0.06,7.69 0,0 -2.44,0.06 -2.44,0.06 0,0 0,1.56 0,1.56 0,0 4.69,0 4.69,0 0,0 0.25,96.75 0.25,96.75"
     id="path3760"
     inkscape:connector-curvature="0" />
  <path
     style="fill:#000000;fill-opacity:1;stroke:none"
     d="m 597.90761,268.32002 c 0,0 0.67,0.05 0.4,-0.49 0,0 1.57,-1.2 1.57,-1.2 0,0 -0.57,2.28 -1.2,2.34 0.05,0.5 -0.08,0.45 -0.57,0.45 0,0 -0.01,0.39 -0.01,0.39 1.06,0.37 0.85,1.59 -0.09,1.87 0,0 0.01,1.44 0.01,1.44 0.58,-0.65 1.36,0.22 0.89,1.16 0.82,-1.19 0.75,-0.88 0.63,0.34 0.56,-0.72 0.03,-1.47 0.22,-2.78 0.12,0.47 0.87,0.38 1.09,0.03 0.19,0.5 0.1,1.22 -0.03,1.85 -0.12,0.62 0.38,0.87 0.47,1.5 0,0 0.12,1.09 -0.13,1.71 -0.03,0.04 -0.5,1.88 -0.5,1.88 0,0 2.38,-0.03 2.38,-0.03 0,0 0.28,-0.63 -0.03,-1 0,0 -0.69,-1 -0.31,-1.94 0.31,-0.78 1.18,-0.22 1.21,-2.44 0.19,-0.97 0.91,-1.4 0.91,-1.4 0.31,0.31 0.78,0.59 0.84,0.09 0,0 0.63,0.72 0.47,1.59 0,0 -0.09,0.47 -0.81,0.13 -0.12,0.69 -0.19,0.66 0.28,1.16 0,0 0.56,0.59 -0.37,1.09 1.37,-0.06 0.68,0.53 0.9,2.19 -0.72,0.25 -0.34,-0.03 -0.59,-1.66 -1.25,0.34 0.06,1.09 -1.16,2.19 0,0 4.16,0 4.16,0 0,0 0.02,1.74 0.02,1.74 0,0 22.61,0.05 22.61,0.05 0,0 0,1.17 0,1.17 0,0 -1.09,0 -1.09,0 0,0 0,3.39 0,3.39 0,0 4.35,0 4.35,0 0,0 -0.04,1.26 -0.04,1.26 0,0 -2.66,2.7 -2.66,2.7 0,0 0,3.04 0,3.04 0,0 1.05,0 1.05,0 0,0 -1,1.96 -1,1.96 0,0 0.04,6 0.04,6 0,0 16.04,0 16.04,0 0,0 0.05,20 0.05,20 0,0 -21.13,0 -21.13,0 0,0 0,-26.91 0,-26.91 0,0 -7.35,0 -7.35,0 0,0 0,26.95 0,26.95 0,0 -4.74,0 -4.74,0 0,0 0,-27 0,-27 0,0 -7.04,0 -7.04,0 0,0 0.04,27.05 0.04,27.05 0,0 -4.65,0 -4.65,0 0,0 -0.05,-27 -0.05,-27 0,0 -10.39,0 -10.39,0 0,0 0.05,27 0.05,27 0,0 -4.7,-0.02 -4.7,-0.02 0,0 -0.02,-26.98 -0.02,-26.98 0,0 -6.98,0.02 -6.98,0.02 0,0 0.05,26.96 0.05,26.96 0,0 -4.7,-0.03 -4.7,-0.03 0,0 0,-26.95 0,-26.95 0,0 -7.44,-0.02 -7.44,-0.02 0,0 0.05,27 0.05,27 0,0 -22.16,0 -22.16,0 0,0 0,-19.94 0,-19.94 0,0 17.11,-0.02 17.11,-0.02 0,0 0,-6.02 0,-6.02 0,0 -0.95,-1.91 -0.95,-1.91 0,0 0.98,0 0.98,0 0,0 0,-3.4 0,-3.4 0,0 -2.71,-2.69 -2.71,-2.69 0,0 0,-1.09 0,-1.09 0,0 4.4,-0.04 4.4,-0.04 0,0 0,-3.4 0,-3.4 0,0 -0.92,0 -0.92,0 0,0 0,-1.12 0,-1.12 0,0 22.46,-0.06 22.46,-0.06 0,0 -0.03,-1.74 -0.03,-1.74 0,0 4.2,-0.03 4.2,-0.03 -1.38,-0.96 -0.5,-1.78 -1.42,-1.78 0.14,1.01 0.28,1.28 -0.24,1.17 -0.33,-1.69 -0.23,-1.64 0.25,-1.64 0,0 -0.24,-0.2 -0.2,-0.89 0.03,-0.25 0.52,0.23 0.61,-1.41 0.01,0.12 -0.69,0.33 -0.72,0.13 0,0 -0.28,-1.17 -0.16,-1.96 0.29,0.33 1.07,0.18 1.04,-0.29 0,0 0.79,0.34 1.09,1.14 0,0 0.25,2.36 1.31,2.98 0.61,0.55 -0.05,1.52 0.06,2.58 0,0 2.04,-0.01 2.04,-0.01 0,0 -0.31,-1.72 -0.31,-1.72 0,0 -0.31,-0.72 -0.23,-1.46 0.15,-0.93 0.55,-0.43 0.59,-1.72 0,0 -0.38,-1.85 0.13,-1.92 0.22,0.32 0.63,0.28 0.75,0 0,0 0.58,0.08 0.12,2.01 0,0 0.13,0.84 1.04,1.37 -0.95,-1.75 0.61,-2.55 0.61,-2.55 0,0 0,-1.05 0,-1.05 -0.97,-0.28 -0.94,-1.61 -0.1,-1.86 0,0 -0.01,-0.4 -0.01,-0.4 -0.56,0.01 -0.6,0.01 -0.56,-0.45 -0.6,-0.06 -1.24,-2.33 -1.24,-2.33 0,0 1.63,1.19 1.63,1.19 -0.28,0.52 0.37,0.49 0.37,0.49 0,0 -0.08,-0.4 -0.08,-0.4 0,0 0.11,-0.34 0.11,-0.34 0,0 0.11,0 0.11,0 0,0 0.12,0.33 0.12,0.33 0,0 -0.09,0.41 -0.09,0.41 z"
     id="path3758"
     inkscape:connector-curvature="0" />
  <path
     style="fill:#000000;fill-opacity:1;stroke:none"
     d="m 699.67235,321.11951 c 0,0 -0.25,-8.88 -0.25,-8.88 0,0 -13.5,0.13 -13.5,0.13 0,0 -3.87,-132.5 -3.87,-132.5 0,0 1.5,-0.07 1.5,-0.07 0,0 -0.07,-5 -0.07,-5 0,0 -1.37,0 -1.37,0 0,0 -0.25,-4.68 -0.25,-4.68 15.24,-5.81 13.46,-23.85 1.25,-29.32 0,0 0.06,-21.37 0.06,-21.37 0,0 -2.62,0 -2.62,0 0,0 0.06,-13.19 0.06,-13.19 0,0 1.06,0 1.06,0 0,0 -0.06,-4 -0.06,-4 0,0 -1,0 -1,0 0,0 -0.59,-26.720003 -0.59,-26.720003 0,0 0.96,-0.03 0.96,-0.03 0,0 -0.01,-3.32 -0.01,-3.32 0,0 -1.08,0 -1.08,0 0,0 -0.52,-19.82 -0.52,-19.82 0,0 1.04,-0.04 1.04,-0.04 0,0 -0.04,-2.61 -0.04,-2.61 0,0 -1.09,-0.05 -1.09,-0.05 0,0 -0.91,-37 -0.91,-37 0,0 -1.31,0.05 -1.31,0.05 0,0 -0.78,37.04 -0.78,37.04 0,0 -1.04,0 -1.04,0 0,0 0,2.65 0,2.65 0,0 0.95,0 0.95,0 0,0 -0.39,19.83 -0.39,19.83 0,0 -1.04,0 -1.04,0 0,0 -0.03,3.33 -0.03,3.33 0,0 1,0 1,0 0,0 -0.5,26.630003 -0.5,26.630003 0,0 -1.12,0.06 -1.12,0.06 0,0 -0.06,3.94 -0.06,3.94 0,0 1.12,0.06 1.12,0.06 0,0 0,13.19 0,13.19 0,0 -2.75,0.06 -2.75,0.06 0,0 -0.06,21.38 -0.06,21.38 -11.94,5.5 -14.38,22.93 1.25,29.31 0,0 -0.25,4.69 -0.25,4.69 0,0 -1.31,0 -1.31,0 0,0 -0.07,4.93 -0.07,4.93 0,0 1.25,0 1.25,0 0,0 -3.29,132.49 -3.29,132.49 0,0 -12.39,-0.05 -12.39,-0.05 0,0 -0.25,8.88 -0.25,8.88"
     id="path3756"
     inkscape:connector-curvature="0" />
  <path
     style="fill:#000000;fill-opacity:1;stroke:none"
     d="m 7.9976115,318.73002 447.8199985,-0.64 95,0 17.38,1.5 87.71,0.05 65.18577,-0.78797 43.30496,-2.7122 44.58677,1.38746 49.49658,-7.49915 76.59709,0.47509 0.007,-4.40516 12.78019,0.006 -0.0484,45.23626 -939.8199985,-0.07 z"
     id="rathaus"
     inkscape:connector-curvature="0"
     sodipodi:nodetypes="ccccccccccccccc" />
</svg>
